<?xml version="1.0" standalone="no"?>
<!DOCTYPE svg PUBLIC "-//W3C//DTD SVG 20010904//EN"
 "http://www.w3.org/TR/2001/REC-SVG-20010904/DTD/svg10.dtd">
<svg version="1.0" xmlns="http://www.w3.org/2000/svg"
 width="300.000000pt" height="347.000000pt" viewBox="0 0 300.000000 347.000000"
 preserveAspectRatio="xMidYMid meet">
<metadata>
Created by potrace 1.10, written by Peter Selinger 2001-2011
</metadata>
<g transform="translate(0.000000,347.000000) scale(0.100000,-0.100000)"
fill="#000000" stroke="none">
<path d="M1033 3268 c-33 -37 -45 -67 -38 -98 6 -26 4 -28 -16 -23 -17 5 -21
3 -16 -9 3 -9 -3 -24 -14 -34 -19 -17 -19 -18 1 -39 23 -25 17 -39 -10 -22
-34 21 -68 -5 -75 -57 -4 -26 -11 -46 -16 -46 -5 0 -9 -10 -9 -22 0 -14 -3
-18 -8 -12 -4 7 -16 13 -27 15 -12 3 -21 14 -23 27 -4 29 -32 26 -48 -5 -7
-16 -14 -19 -21 -12 -16 16 -35 1 -28 -22 6 -17 3 -19 -19 -13 -16 4 -26 2
-26 -4 0 -18 40 -80 55 -86 8 -3 15 -12 15 -20 0 -21 41 -43 92 -51 l46 -7
-17 -29 c-9 -16 -19 -29 -23 -29 -16 0 -7 -29 13 -43 19 -14 19 -15 -14 -21
-19 -4 -47 -16 -62 -28 -24 -19 -26 -23 -12 -33 10 -7 16 -24 14 -43 -2 -28
-6 -32 -30 -32 -22 0 -28 -4 -25 -17 5 -25 119 -31 154 -8 26 17 32 53 12 74
-11 12 -10 13 6 7 13 -4 27 1 43 16 l25 23 -8 -30 c-4 -16 -16 -37 -28 -46
-14 -11 -20 -29 -21 -57 0 -23 -4 -45 -8 -49 -5 -4 -5 0 -2 9 12 31 -16 29
-50 -4 -21 -20 -35 -43 -35 -57 0 -24 0 -24 -15 -5 -14 17 -16 18 -28 3 -7 -9
-21 -18 -32 -20 -16 -3 -21 -13 -23 -49 -2 -38 2 -48 24 -63 32 -24 50 -17 59
23 5 24 11 30 25 25 15 -5 21 1 28 27 4 18 12 32 18 30 13 -4 26 -56 14 -60
-33 -11 -53 -130 -29 -173 9 -18 12 -19 27 -6 9 8 23 12 30 10 8 -3 12 7 12
31 0 42 10 50 44 35 34 -16 41 -7 30 39 -8 30 -13 37 -32 35 -15 -2 -21 1 -16
8 4 7 7 25 6 40 -1 25 2 27 16 19 29 -17 62 -48 62 -59 0 -5 10 -17 23 -26 15
-12 18 -19 10 -22 -7 -3 -13 -20 -13 -39 0 -40 -32 -109 -54 -117 -23 -9 -58
-86 -52 -112 7 -26 70 -70 86 -60 5 3 7 18 4 31 l-7 26 43 -22 c47 -24 75 -20
67 10 -6 24 1 25 27 5 11 -8 26 -15 34 -15 8 0 20 -7 26 -16 11 -15 15 -14 47
5 19 11 44 21 57 21 19 0 21 -3 12 -19 -14 -27 -13 -51 5 -85 8 -15 15 -40 15
-53 0 -18 4 -24 15 -19 11 4 15 -1 15 -19 0 -34 20 -42 41 -17 20 25 69 30 69
8 0 -8 -12 -24 -27 -36 -50 -39 -61 -120 -17 -120 24 0 15 -35 -16 -65 -16
-16 -30 -37 -30 -48 0 -17 -1 -17 -16 -3 -18 19 -16 19 -51 5 -15 -7 -43 -11
-62 -10 -18 1 -39 -3 -47 -9 -10 -9 -21 -6 -47 14 -37 28 -103 36 -125 14 -25
-25 -13 -57 31 -85 23 -15 44 -29 46 -30 3 -2 -14 -23 -37 -46 -23 -24 -42
-51 -42 -60 0 -29 28 -31 61 -3 17 14 34 26 39 26 5 0 16 3 24 6 12 5 15 2 10
-9 -3 -9 -1 -32 6 -51 7 -22 8 -41 2 -53 -35 -70 -47 -91 -65 -110 -11 -13
-31 -23 -44 -23 -12 0 -40 -16 -62 -35 -21 -19 -47 -35 -57 -35 -25 0 -64 -27
-64 -45 0 -7 10 -15 23 -17 18 -2 23 -11 27 -48 7 -64 29 -66 133 -14 36 18
47 18 47 -1 0 -8 5 -15 10 -15 6 0 10 -8 10 -19 0 -23 33 -33 67 -20 38 14 53
11 53 -12 0 -71 64 -81 117 -19 19 22 42 40 51 40 9 0 32 9 50 20 17 11 32 17
32 14 0 -15 -64 -96 -93 -118 -29 -22 -41 -24 -139 -24 -121 -1 -143 -9 -164
-58 -12 -28 -19 -34 -45 -34 -30 0 -31 -1 -25 -35 6 -28 3 -38 -15 -52 -44
-35 -135 -129 -152 -155 -11 -18 -26 -28 -41 -28 -27 0 -56 -28 -56 -55 0 -14
6 -16 31 -11 28 5 36 1 70 -36 32 -35 40 -40 53 -29 10 8 16 30 16 55 0 47 13
66 46 66 12 0 34 6 50 14 15 8 40 12 54 9 15 -3 36 0 47 5 15 8 22 7 31 -9 7
-10 19 -19 27 -19 9 0 27 -7 40 -16 23 -15 27 -15 50 0 25 17 34 59 15 71 -40
25 55 85 134 85 41 0 56 -5 75 -25 28 -30 62 -32 86 -5 16 17 26 19 69 14 47
-7 50 -6 37 10 -22 26 -5 30 32 7 42 -26 134 -30 143 -6 9 22 -14 45 -45 45
-14 0 -33 5 -41 11 -25 17 179 -2 239 -22 60 -21 161 -25 194 -8 12 6 36 24
52 40 17 15 47 35 68 44 75 31 175 143 161 180 -7 18 -17 18 -126 -1 -46 -8
-50 6 -13 56 20 27 24 41 19 67 l-6 33 41 0 c41 0 43 1 66 53 49 111 64 181
58 259 -3 40 -10 79 -16 86 -26 33 -73 45 -177 47 -119 3 -144 -5 -137 -41 5
-31 -4 -30 -33 1 l-23 25 20 23 c30 32 43 62 33 73 -5 5 -10 22 -12 38 -2 23
-13 36 -47 56 -48 28 -66 52 -32 43 18 -5 21 -1 21 27 0 20 -10 44 -25 62 -14
16 -25 38 -25 48 0 9 -7 23 -15 30 -8 7 -15 19 -15 27 0 47 -98 133 -152 133
-13 0 -39 14 -57 30 -29 27 -32 35 -26 66 5 27 2 41 -11 55 -9 10 -29 54 -43
96 -22 66 -32 81 -66 104 -41 28 -55 41 -102 97 -28 33 -28 33 -77 21 -56 -14
-213 -6 -230 12 -8 8 15 9 89 4 109 -7 117 -4 127 45 3 14 9 33 13 43 6 14 2
20 -14 24 -11 3 -21 12 -21 19 0 8 -10 14 -25 14 -21 0 -16 8 45 69 52 52 70
76 70 96 0 19 13 40 40 67 22 22 44 56 50 76 15 57 13 138 -6 156 -18 19 -17
19 -84 6 -33 -6 -58 -6 -69 0 -12 7 -8 9 20 10 40 0 75 29 66 54 -5 13 -64 36
-94 36 -22 0 -46 -48 -39 -76 7 -25 5 -26 -21 -20 -15 3 -49 9 -74 12 -41 6
-48 4 -58 -15 -7 -11 -20 -21 -31 -21 -10 0 -20 -4 -22 -8 -4 -12 -58 -24 -58
-13 0 5 7 11 15 15 8 3 15 14 15 25 0 11 10 27 22 35 18 13 20 18 10 28 -10
10 -6 16 22 28 36 15 146 133 146 156 0 7 -4 15 -9 19 -6 3 -4 19 5 40 18 43
7 50 -48 28 -28 -11 -66 -16 -111 -15 -37 1 -77 -2 -88 -8 -28 -16 -86 -2 -92
21 -7 25 -29 24 -54 -3z m47 -28 c22 -22 88 -27 121 -9 14 7 35 7 63 1 35 -7
54 -5 92 9 61 23 59 24 42 -3 -11 -16 -12 -28 -5 -39 8 -12 -1 -29 -38 -75
-26 -32 -60 -63 -74 -68 -38 -13 -53 -27 -48 -47 3 -10 -4 -26 -14 -35 -10 -9
-19 -23 -19 -29 0 -14 -37 -55 -84 -93 -20 -17 -25 -27 -17 -35 7 -7 24 -2 60
20 27 17 63 34 80 38 17 3 33 11 36 16 4 5 13 9 22 9 9 0 21 8 28 17 11 15 23
16 116 6 57 -6 128 -9 157 -6 l52 6 0 -67 c0 -76 -12 -106 -64 -155 -26 -25
-34 -40 -30 -54 5 -15 -7 -33 -42 -69 -85 -87 -91 -92 -130 -103 -53 -15 -53
-40 1 -39 22 0 48 4 58 8 13 6 16 5 11 -8 -5 -12 0 -16 20 -16 23 0 25 -3 19
-32 -3 -18 -9 -37 -14 -42 -4 -5 -44 -4 -94 2 -94 12 -129 5 -123 -26 6 -30
65 -42 196 -39 115 2 124 1 134 -18 11 -22 89 -95 100 -95 17 0 39 -36 54 -91
10 -34 28 -74 41 -89 18 -22 21 -33 14 -52 -4 -12 -5 -32 -1 -44 12 -30 68
-74 94 -74 13 0 35 -9 49 -20 14 -11 29 -20 33 -20 14 0 54 -43 54 -59 0 -9 9
-29 20 -46 11 -16 20 -36 20 -44 0 -7 11 -26 25 -43 31 -37 36 -71 5 -43 -25
23 -126 27 -140 5 -14 -22 -5 -27 54 -32 44 -4 61 -11 84 -34 17 -16 41 -38
55 -49 39 -31 41 -74 6 -114 -16 -19 -29 -37 -29 -41 0 -4 18 -24 40 -44 45
-41 67 -39 72 7 3 27 7 32 28 30 14 -2 57 -3 97 -3 54 1 83 -5 114 -20 41 -21
41 -22 34 -66 -4 -29 -2 -50 5 -59 13 -16 11 -25 -43 -173 l-29 -83 -37 6
c-47 8 -66 -11 -56 -55 5 -25 1 -40 -21 -71 -22 -32 -26 -44 -17 -57 11 -19
73 -23 131 -8 25 6 32 4 32 -7 0 -24 -91 -113 -145 -141 -27 -14 -67 -40 -88
-58 -34 -29 -44 -32 -100 -31 -34 0 -98 10 -141 22 -96 25 -237 29 -255 7 -10
-12 -7 -18 18 -30 16 -9 41 -16 55 -16 14 0 28 -4 31 -10 11 -18 -65 -11 -115
11 -48 21 -88 20 -75 -1 4 -6 -10 -10 -34 -10 -30 0 -43 -5 -51 -20 -14 -27
-28 -25 -61 6 -23 22 -36 26 -90 26 -53 1 -71 -3 -106 -25 -56 -35 -70 -62
-48 -87 28 -31 -1 -69 -30 -41 -6 5 -21 11 -35 13 -19 2 -24 8 -23 25 3 27
-25 38 -47 18 -10 -9 -35 -15 -63 -15 -27 0 -52 -6 -61 -15 -8 -8 -28 -15 -44
-15 -38 0 -55 -21 -58 -73 -2 -23 -3 -43 -3 -45 -1 -2 -17 13 -36 33 -29 31
-39 36 -62 31 -23 -6 -25 -5 -14 8 8 9 24 16 36 16 14 0 34 13 49 32 37 46 94
103 139 140 34 27 38 36 35 65 -4 30 -2 33 23 33 31 0 46 15 51 50 3 23 8 26
73 33 39 4 94 5 122 1 53 -5 53 -5 108 46 30 29 57 62 61 74 4 11 20 32 35 45
30 25 38 51 17 51 -7 0 -40 -14 -72 -30 -32 -17 -65 -30 -72 -30 -8 0 -31 -18
-51 -40 -47 -50 -69 -51 -77 -6 -8 44 -28 61 -55 47 -11 -6 -32 -11 -48 -10
-26 1 -26 1 -5 7 32 9 29 26 -5 30 -15 2 -32 10 -36 18 -13 23 -56 15 -139
-27 -31 -16 -38 -10 -38 30 0 29 -6 44 -20 54 -18 13 -19 15 -5 21 9 3 27 6
39 6 13 0 31 12 43 29 14 18 37 32 67 40 36 9 50 19 75 56 17 26 31 54 31 64
0 9 5 22 10 27 7 7 8 36 4 79 l-7 67 -34 -5 c-18 -3 -46 -15 -62 -26 -47 -34
-47 -24 1 27 56 59 69 84 58 102 -7 12 -12 12 -27 -3 -18 -16 -21 -15 -51 6
-35 24 -40 42 -16 51 32 12 62 5 89 -20 21 -20 34 -24 54 -19 14 3 35 6 46 6
11 1 39 5 61 11 37 9 44 8 63 -11 31 -31 44 -27 39 11 -4 26 1 38 23 61 16 16
32 40 35 53 7 26 -10 54 -31 54 -21 0 -5 41 32 83 43 49 40 70 -12 78 -44 7
-62 3 -68 -14 -2 -7 -2 -2 0 11 2 17 -1 22 -17 22 -11 0 -20 7 -20 15 0 9 -7
30 -16 47 -13 25 -14 35 -4 54 7 12 10 30 7 38 -8 21 -70 21 -101 0 -16 -10
-26 -12 -31 -5 -3 6 -14 11 -23 11 -9 0 -28 9 -42 20 -37 29 -64 26 -58 -5 6
-30 -1 -31 -53 -5 -47 24 -61 19 -53 -18 l6 -27 -27 27 -28 26 22 36 c13 20
26 36 31 36 15 0 62 94 65 127 1 18 8 39 14 47 10 11 6 21 -19 50 l-32 36 21
29 c41 57 17 92 -28 42 -19 -21 -34 -29 -45 -25 -21 8 -21 31 2 43 26 14 55
68 41 77 -7 4 -30 -11 -56 -39 -40 -43 -43 -50 -42 -95 1 -27 -1 -54 -5 -61
-10 -15 12 -41 28 -35 8 3 16 -2 19 -10 7 -19 3 -20 -23 -6 -23 13 -50 -11
-50 -45 0 -39 -28 -39 -36 -1 -6 36 5 66 40 105 15 17 17 25 9 28 -7 3 -13 15
-13 27 0 12 -5 27 -11 33 -9 9 -5 20 15 43 20 24 26 42 26 76 l0 45 41 -3 c50
-4 64 17 24 32 -18 7 -25 15 -21 25 3 8 9 22 12 30 11 26 -25 29 -51 5 -23
-21 -28 -22 -64 -12 -48 15 -51 15 -51 -1 0 -7 14 -23 30 -35 17 -13 30 -29
30 -37 0 -18 -31 -35 -64 -35 -20 0 -24 4 -19 18 4 9 13 22 21 28 13 9 13 12
-2 17 -9 4 -16 13 -16 22 0 8 -4 15 -10 15 -5 0 -10 4 -10 10 0 5 25 17 55 25
42 13 55 21 55 36 0 10 -7 19 -15 19 -18 0 -18 2 -3 35 12 27 23 32 33 15 9
-14 28 -1 21 15 -2 7 4 15 15 18 13 3 17 11 13 21 -3 9 -1 23 6 31 16 19 6 45
-19 45 -23 0 -53 67 -41 90 4 8 11 34 15 57 7 44 34 79 42 56 6 -17 35 -16 59
1 19 14 19 15 -4 38 l-22 24 34 29 c29 24 33 32 25 52 -9 24 -1 49 24 81 12
16 13 16 37 -8z m474 -235 c27 -6 27 -7 12 -24 -16 -18 -67 -23 -81 -9 -10 10
14 48 28 43 6 -2 25 -6 41 -10z m-770 -147 c-8 -49 8 -76 49 -80 20 -2 32 -8
32 -18 0 -17 -41 -15 -62 2 -7 5 -17 7 -24 3 -6 -5 -27 9 -49 34 -28 30 -36
47 -33 65 5 22 8 23 24 13 25 -15 38 2 32 41 l-5 27 21 -25 c16 -19 20 -33 15
-62z m85 -36 c6 -12 19 -22 27 -22 11 0 14 -6 10 -16 -3 -9 -6 -22 -6 -30 0
-8 -5 -14 -11 -14 -6 0 -9 7 -5 15 3 9 -4 25 -15 36 -13 13 -23 38 -25 63 -3
33 -2 36 5 15 4 -14 14 -35 20 -47z m-60 -514 c-17 -31 -23 -9 -8 28 9 22 13
25 16 12 2 -9 -1 -27 -8 -40z m-49 -28 c0 -24 -21 -70 -32 -70 -4 0 -8 8 -8
18 0 10 -5 23 -11 29 -12 12 -3 37 11 28 5 -3 11 -1 15 5 10 17 25 11 25 -10z
m1324 -751 c8 -9 8 -10 0 -6 -7 4 -29 9 -50 13 -54 8 -59 18 -5 11 24 -3 49
-11 55 -18z"/>
<path d="M755 3256 c-38 -16 -85 -70 -85 -97 0 -22 -11 -24 -28 -7 -19 19 -45
-10 -38 -44 3 -15 9 -41 12 -57 7 -35 -26 -75 -55 -66 -14 4 -21 -1 -29 -23
-5 -16 -6 -35 -1 -43 4 -9 4 -44 -1 -79 -13 -92 19 -141 34 -53 11 59 53 138
80 151 16 7 26 21 28 38 2 19 13 32 38 45 56 30 77 56 63 78 -6 10 -8 22 -3
27 21 22 48 110 39 127 -12 20 -15 20 -54 3z m31 -28 c-2 -7 -10 -31 -17 -52
-9 -26 -26 -48 -51 -65 -31 -21 -37 -31 -32 -50 3 -16 -1 -28 -16 -38 -11 -8
-20 -25 -20 -39 0 -17 -8 -27 -24 -34 -14 -5 -33 -28 -47 -56 -12 -26 -25 -42
-27 -36 -2 7 2 19 9 28 9 11 9 18 1 26 -7 7 -12 20 -12 30 0 15 5 17 26 12 20
-5 26 -2 31 14 3 11 11 23 19 26 17 7 19 65 2 101 -13 29 -2 49 13 22 16 -28
28 -20 50 31 20 47 62 92 87 92 8 0 11 -6 8 -12z"/>
<path d="M1521 3214 c-20 -25 -25 -43 -22 -71 1 -7 -5 -13 -14 -13 -19 0 -19
-2 0 -46 18 -43 50 -44 50 -3 -1 21 3 25 20 21 11 -3 28 -12 38 -21 17 -14 20
-14 37 8 19 26 21 82 3 88 -6 2 -18 -3 -26 -12 -25 -25 -36 -18 -30 19 4 27 1
36 -15 45 -17 9 -24 7 -41 -15z m35 -30 c-9 -34 9 -56 40 -48 17 4 24 2 24 -8
0 -21 -10 -28 -29 -19 -9 5 -28 14 -43 22 -31 14 -32 17 -18 53 13 35 34 34
26 0z"/>
<path d="M665 2590 c-10 -11 -28 -20 -40 -20 -26 0 -42 -16 -45 -45 -4 -33 -1
-45 11 -45 21 0 139 103 139 121 0 17 -47 9 -65 -11z"/>
<path d="M1081 1794 c-12 -15 -21 -32 -21 -38 0 -7 -11 -27 -25 -46 -14 -19
-25 -42 -25 -52 0 -48 65 -19 101 44 36 65 39 78 29 99 -15 26 -35 24 -59 -7z
m7 -80 c-37 -53 -76 -78 -43 -28 11 16 26 43 35 59 30 57 35 62 38 38 2 -12
-11 -42 -30 -69z"/>
</g>
</svg>
