<?xml version="1.0" encoding="utf-8"?>

<!DOCTYPE svg PUBLIC "-//W3C//DTD SVG 1.1//EN" "http://www.w3.org/Graphics/SVG/1.1/DTD/svg11.dtd">
<!-- Uploaded to: SVG Repo, www.svgrepo.com, Generator: SVG Repo Mixer Tools -->
<svg height="800px" width="800px" version="1.1" id="_x32_" xmlns="http://www.w3.org/2000/svg" xmlns:xlink="http://www.w3.org/1999/xlink" 
	 viewBox="0 0 512 512"  xml:space="preserve">
<style type="text/css">
	.st0{fill:#000000;}
</style>
<g>
	<path class="st0" d="M152.705,182.76l2.452,4.493c-0.434-0.79-0.716-1.643-0.852-2.526
		C153.685,184.162,153.121,183.52,152.705,182.76z"/>
	<path class="st0" d="M419.424,366.943c1.352-2.247,1.484-5.028,0.336-7.392l-12.334-25.435c-1.266-2.611-3.877-4.3-6.775-4.37
		l-21.631-0.574c-2.65-0.077-5.086-1.488-6.454-3.765c-1.364-2.278-1.472-5.09-0.282-7.468l-1.922,3.859
		c0.976-1.976,1.081-4.262,0.286-6.299l-21.19-54.35c-0.574-1.487-1.596-2.75-2.924-3.641l-29.193-19.454
		c-1.449-0.976-2.538-2.409-3.076-4.06l-11.924-36.692c-0.282-0.876-0.716-1.681-1.278-2.402l-26.702-34.074
		c-1.193-1.518-2.925-2.549-4.835-2.866l-10.475-1.743c-3.018-0.504-5.454-2.72-6.229-5.664c-0.786-2.952,0.236-6.098,2.611-8.026
		l0.446-0.364c1.553-1.263,2.557-3.068,2.804-5.051l1.507-12.04c0.093-0.736,0.29-1.442,0.577-2.115l23.293-54.071
		c1.035-2.402,0.794-5.159-0.642-7.344c-1.438-2.178-3.874-3.502-6.485-3.502h-21.918c-0.511,0-1.027,0.062-1.522,0.163
		l-24.49,4.889c-3.173,0.635-6.407-0.767-8.116-3.526c-1.704-2.75-1.522-6.267,0.469-8.839l17.824-23.01
		c0.574-0.728,1.004-1.566,1.282-2.456l4.715-15.2c0.821-2.642,0.166-5.539-1.72-7.57c-1.89-2.037-4.715-2.913-7.422-2.294
		l-20.884,4.773c-0.976,0.225-1.987,0.264-2.971,0.101l-23.255-3.75c-3.835-0.628-7.53,1.689-8.669,5.4l-11.378,37.398
		c-0.542,1.782-1.72,3.316-3.312,4.315L145.419,61.03c-1.135,0.697-2.061,1.689-2.701,2.859l-2.684,4.928
		c-1.476,2.696-1.216,6.012,0.674,8.452l12.698,16.432c0.938,1.224,1.495,2.696,1.596,4.23l0.74,11.055
		c0.082,1.178-0.12,2.378-0.573,3.471l-7.295,17.626c-0.964,2.332-0.735,4.974,0.609,7.104c1.333,2.131,3.626,3.471,6.136,3.618
		l-1.488-0.086c2.228,0.125,4.296,1.209,5.676,2.96c1.379,1.759,1.933,4.021,1.526,6.214l-5.992,32.222
		c-0.163,0.868-0.17,1.751-0.035,2.611c1.452,1.333,3.362,2.123,5.4,2.076c2.905-0.077,5.532-1.766,6.795-4.37l4.443-9.142
		c1.244-2.557,3.777-4.23,6.617-4.37c2.839-0.14,5.52,1.286,7,3.72l4.645,7.623c1.348,2.216,1.499,4.958,0.403,7.314l-9.812,21.027
		c-1.542,3.292-0.582,7.213,2.301,9.436l17.292,13.295c2.506,1.929,5.93,2.138,8.658,0.543l11.32-6.633
		c2.552-1.494,5.725-1.418,8.197,0.21c2.467,1.627,3.8,4.51,3.432,7.446l-0.818,6.523c-0.178,1.442,0.047,2.898,0.659,4.215
		l10.479,22.723c0.503,1.07,0.743,2.255,0.716,3.44l-0.817,33.54c-0.09,3.649-2.7,6.732-6.276,7.438l-30.308,5.911
		c-3.11,0.596-5.543,3.045-6.136,6.16l-1.51,7.956c-0.403,2.115,0.085,4.308,1.363,6.035c1.271,1.744,3.212,2.882,5.354,3.122
		l1.886,0.224c4.002,0.465,6.977,3.928,6.849,7.95l-0.639,20.616c-0.094,2.905-1.794,5.508-4.416,6.763l-34.628,16.557
		c-1.983,0.954-3.471,2.704-4.098,4.804c-0.62,2.115-0.326,4.378,0.821,6.252l4.559,7.468c1.329,2.154,3.622,3.541,6.16,3.688
		l28.708,1.751c0.473,0.023,0.945,0.093,1.414,0.216l33.028,8.259c1.798,0.442,3.7,0.24,5.35-0.604l-13.24,6.64
		c3.312-1.666,7.333-0.744,9.607,2.177c0.845,1.084,1.248,2.355,1.433,3.642h-30.3c-2.805,0-5.396,1.518-6.768,3.959l-11.388,20.322
		c-0.388,0.712-0.891,1.348-1.484,1.89l-35.523,33.067c-1.735,1.603-2.642,3.935-2.452,6.29c0.194,2.371,1.454,4.524,3.429,5.842
		l4.436,2.959c3.235,2.154,7.562,1.58,10.134-1.333l14.832-16.858c1.848-2.107,4.687-3.045,7.434-2.456l23.704,5.02
		c3.196,0.682,6.477-0.72,8.201-3.495l12.989-20.933c1.476-2.379,4.13-3.781,6.935-3.658l41.705,1.821
		c0.275,0.008,0.546,0,0.825-0.023l78.444-4.897c1.491-0.085,2.921-0.612,4.121-1.496l34.574-25.482
		c1.38-1.007,2.386-2.456,2.863-4.106l0.891-3.145c0.616-2.147,0.272-4.455-0.942-6.338c-1.212-1.875-3.176-3.138-5.384-3.471
		l-7.093-1.046c-2.569-0.38-4.773-2.03-5.888-4.37c-1.104-2.356-0.961-5.105,0.383-7.321L419.424,366.943z"/>
	<path class="st0" d="M161.522,227.851l-17.641-26.063c-1.844-2.728-5.438-3.642-8.348-2.107l-37.661,19.686
		c-1.201,0.628-2.181,1.619-2.786,2.835l-2.94,5.873c-1.305,2.619-0.705,5.772,1.472,7.709l10.808,9.676
		c2.642,2.37,6.705,2.161,9.099-0.473l5.822-6.407l5.633,12.063c0.918,1.968,2.758,3.347,4.9,3.665l12.83,1.929
		c2.46,0.372,4.912-0.697,6.307-2.758l12.489-18.361C162.999,232.926,162.999,230.035,161.522,227.851z M130.281,233.506
		l-3.154-9.467l7.887-4.726l2.363,6.314L130.281,233.506z"/>
</g>
</svg>